<svg id="Layer_1" data-name="Layer 1" xmlns="http://www.w3.org/2000/svg" viewBox="0 0 258.2 97.98"><defs><style>.cls-1,.cls-2{fill:#485b90;}.cls-1,.cls-2,.cls-3,.cls-4{stroke:#fff;stroke-miterlimit:10;}.cls-1{stroke-width:0.75px;}.cls-2{stroke-width:2px;}.cls-3,.cls-4{fill:none;}.cls-4{stroke-width:2.5px;}.cls-5{fill:#fff;}</style></defs><title>logomsu</title><path class="cls-1" d="M126.69,83l.3-.9,1.5-8.38q.5-2.59-1.6-3h-5.79L123,60.11h5.79a4.11,4.11,0,0,0,1.8-.85,3.22,3.22,0,0,0,.8-1.95l1.2-7.08v-.9q.1-3.89-4.09-3.89H124.7A3.29,3.29,0,0,0,121.3,48l-8.68,49.38H95L106,34.87h33.62q6.29,0,9.28,3t2,8.78L149,57.52a9.1,9.1,0,0,1-.7,1.75,26.19,26.19,0,0,1-1.45,2.59A17.52,17.52,0,0,1,145,64.3a4.75,4.75,0,0,1-1.9,1.4,4,4,0,0,1,1.3,1.3,11.28,11.28,0,0,1,1,2,10.62,10.62,0,0,1,.65,2.34,6.35,6.35,0,0,1,0,2.24L144,85.85q-.1.6-.6,2.49a12.36,12.36,0,0,1-1.9,3.89,13.61,13.61,0,0,1-3.89,3.59,11.85,11.85,0,0,1-6.49,1.6H116.42l1.8-10h4.19q3.69,0,4.19-3.29Z" transform="translate(-1.45 -1.57)"/><path class="cls-1" d="M158.81,34.87h17.66l-4.09,23q-.8,4.09,4.29,4.09h4.79a2.78,2.78,0,0,0,2.89-1.9l4.49-25.24H206.5l-8.68,49a14.84,14.84,0,0,1-6.23,9.93A21.26,21.26,0,0,1,179,97.42H148.74l1.9-10.47h21a18.46,18.46,0,0,0,3.64-.3,6.51,6.51,0,0,0,2.44-1,5.51,5.51,0,0,0,1.6-1.7,13.48,13.48,0,0,0,1.1-2.39l1.6-9.18H162q-9.88,0-8.48-7.68Z" transform="translate(-1.45 -1.57)"/><path class="cls-1" d="M212.19,34.87h33.62q6.29,0,9.28,3t2,8.78l-7.38,41.8q-1.7,9-12.47,9H222.56l1.8-10h4.19q3.69,0,4.19-3.29l6-33.92v-.9q.1-3.89-4.09-3.89h-3.79a3.08,3.08,0,0,0-3.39,3l-8.68,49H201.11Z" transform="translate(-1.45 -1.57)"/><path class="cls-1" d="M105.27,24.84h5.35a4.63,4.63,0,0,0,1.78-.42,2.06,2.06,0,0,0,1.25-1.16l2.24-21.32h7.68L121.11,25.1q-1.27,4.34-6.27,4.34h-10Z" transform="translate(-1.45 -1.57)"/><path class="cls-1" d="M136.85,6.64h-1a1.9,1.9,0,0,0-1.78.77,4,4,0,0,0-.55,1.73l-1.4,13.33a4.38,4.38,0,0,0,.11,1.05,1.65,1.65,0,0,0,.39.75,1.6,1.6,0,0,0,.81.44,6.23,6.23,0,0,0,1.45.13h9.87l-.48,4.61H130.8a7.38,7.38,0,0,1-5.11-1.6,4.81,4.81,0,0,1-1.47-4.36l1.89-17.76a4.71,4.71,0,0,1,2.3-2.81,11.23,11.23,0,0,1,5.29-1h7.68a7.37,7.37,0,0,1,4.34,1,3.8,3.8,0,0,1,1.49,2.83l-.88,8.33a3.52,3.52,0,0,1-1.89,2.68,7.56,7.56,0,0,1-3.86,1h-6.27l.48-4.65h2.06a2.05,2.05,0,0,0,1.47-.42,2,2,0,0,0,.5-1.25l.26-2.28a2.67,2.67,0,0,0-.33-1.89A2.31,2.31,0,0,0,136.85,6.64Z" transform="translate(-1.45 -1.57)"/><path class="cls-1" d="M150.05,6.77a4.42,4.42,0,0,1,2.5-3.66,11.89,11.89,0,0,1,5.53-1.16h6.62a10.12,10.12,0,0,1,2.37.29,6.83,6.83,0,0,1,2.11.88,4.33,4.33,0,0,1,1.45,1.51A3.48,3.48,0,0,1,171,6.77l-1.84,17.85a4.57,4.57,0,0,1-.75,2.13,5.13,5.13,0,0,1-1.58,1.49,7.7,7.7,0,0,1-2.26.9,11.87,11.87,0,0,1-2.74.31h-6.67a10.7,10.7,0,0,1-5.37-1.12,3.43,3.43,0,0,1-1.6-3.71Zm9.56,18.07a1.86,1.86,0,0,0,1.93-1.62l1.62-15.35c.06-.53,0-.87-.26-1a3,3,0,0,0-1.49-.24h-1.84a3.39,3.39,0,0,0-1.36.22q-.48.22-.57,1.1L156,23.43a1.39,1.39,0,0,0,1.67,1.4Z" transform="translate(-1.45 -1.57)"/><path class="cls-1" d="M187.38,1.94q5,0,5.31,4.34l-.61,6.1h-7.63l.39-3.77,0-.44a1.74,1.74,0,0,0-1.93-1.58,1.51,1.51,0,0,0-.86.2,1.09,1.09,0,0,0-.37.77l-.79,7.68H189l-.48,4.56h-8.16l-1,9.65h-7.76l2.89-27.5Z" transform="translate(-1.45 -1.57)"/><path class="cls-1" d="M200.93,29.44h-7.68l2.24-21.18h7.68Zm2.41-22.85h-7.68l.48-4.65h7.68Z" transform="translate(-1.45 -1.57)"/><path class="cls-1" d="M221.77,29.44H204l.48-4.61L215.93,6.59h-9.56l.48-4.65h17.81l-.48,4.65L212.64,24.84h9.61Z" transform="translate(-1.45 -1.57)"/><path class="cls-1" d="M232.47,29.44h-7.68L227,8.26h7.68Zm2.41-22.85H227.2l.48-4.65h7.68Z" transform="translate(-1.45 -1.57)"/><path class="cls-1" d="M238.39,1.94h7.68l-2.89,27.5h-7.68ZM248,13.17a1.4,1.4,0,0,0,1.14-1.36l2.46-9.87h7.59l-2.37,10a1.8,1.8,0,0,1-.2.66,10.54,10.54,0,0,1-.5,1q-.31.53-.68,1.05a7,7,0,0,1-.77.92,2,2,0,0,1,.59.57,4.26,4.26,0,0,1,.48.88,4.7,4.7,0,0,1,.29,1,4,4,0,0,1,0,1l.22,10.48H248.7L248.39,19a1.05,1.05,0,0,0-.88-1.32H246l.48-4.52Z" transform="translate(-1.45 -1.57)"/><circle class="cls-2" cx="48.96" cy="49.03" r="47.96"/><circle class="cls-3" cx="48.96" cy="49.03" r="47.96"/><path class="cls-4" d="M15.6,17.61s27.6,8,61.05-7.17" transform="translate(-1.45 -1.57)"/><path class="cls-4" d="M2.84,44.51s37.09-8.69,76,44.71" transform="translate(-1.45 -1.57)"/><path class="cls-4" d="M8.78,75.3s21.17-49.54,81-52.15" transform="translate(-1.45 -1.57)"/><path class="cls-4" d="M6.08,32.27S38.48,21.52,52.56,2.68" transform="translate(-1.45 -1.57)"/><path class="cls-4" d="M18.87,86.71s23.16-16,67.38-4.5" transform="translate(-1.45 -1.57)"/><path class="cls-4" d="M47.87,98.55s7-41.17,48.13-62.88" transform="translate(-1.45 -1.57)"/><path class="cls-4" d="M59.25,3.45s7.11,40.54,37.06,61" transform="translate(-1.45 -1.57)"/><path class="cls-4" d="M90.19,77.38s-6-25.16.58-52.69" transform="translate(-1.45 -1.57)"/><path class="cls-4" d="M11.48,22.58S37.7,44,37.53,96.8" transform="translate(-1.45 -1.57)"/><circle class="cls-5" cx="27.66" cy="46.36" r="7.04"/><circle class="cls-5" cx="51.71" cy="78.61" r="5.29"/><circle class="cls-5" cx="34.82" cy="78.61" r="3.88"/><circle class="cls-5" cx="30.97" cy="19.01" r="3.1"/><circle class="cls-5" cx="60.88" cy="14.39" r="3.07"/><circle class="cls-5" cx="64.76" cy="26.67" r="4.56"/><circle class="cls-5" cx="76.79" cy="44.66" r="3.97"/><circle class="cls-5" cx="86.76" cy="38.5" r="2.56"/><circle class="cls-5" cx="86.24" cy="56.04" r="3.25"/><circle class="cls-5" cx="58.92" cy="66.74" r="3.27"/><circle class="cls-5" cx="70.27" cy="78.03" r="3.3"/><circle class="cls-5" cx="17.17" cy="28.35" r="3.42" transform="translate(-17.41 27.47) rotate(-60)"/></svg>